<svg xmlns="http://www.w3.org/2000/svg" width="34" height="34" viewBox="0 0 34 34"><g transform="translate(-32.957 -6.758)"><g transform="translate(32.957 6.758)"><rect width="34" height="34" rx="17" transform="translate(0 0)" fill="#34b1f6"/></g><path d="M12.957,14.347.671,20.022a.85.85,0,0,0-.046,1.495L3.117,22.88l7.422-5.472a.1.1,0,0,1,.107-.008.111.111,0,0,1,.057.1l-6.217,6.29a.852.852,0,0,0-.241.6V27.3a.775.775,0,0,0,1.448.432L7.2,25.114l3.191,1.746a.742.742,0,0,0,.683.017.819.819,0,0,0,.435-.558L14.029,15.3A.8.8,0,0,0,12.957,14.347Z" transform="translate(42.52 3.123)" fill="#fff"/></g></svg>