<svg xmlns="http://www.w3.org/2000/svg" width="14" height="14" viewBox="0 0 14 14"><script xmlns=""/>
  <path id="WAP_1" data-name="WAP 1" d="M2.917,7.682a.917.917,0,0,1,.875-.955h6.417a.958.958,0,0,1,0,1.909H3.792A.917.917,0,0,1,2.917,7.682Zm.875,4.136H7.875a.958.958,0,0,0,0-1.909H3.792a.958.958,0,0,0,0,1.909ZM14,4.5v7A3.367,3.367,0,0,1,10.792,15H3.208A3.367,3.367,0,0,1,0,11.5v-7A3.367,3.367,0,0,1,3.208,1h7.583A3.367,3.367,0,0,1,14,4.5ZM4.667,3.227a.917.917,0,0,0,.875.955.917.917,0,0,0,.875-.955.917.917,0,0,0-.875-.955.917.917,0,0,0-.875.955Zm-2.917,0a.917.917,0,0,0,.875.955A.917.917,0,0,0,3.5,3.227a.917.917,0,0,0-.875-.955.917.917,0,0,0-.875.955Zm10.5,2.227H1.75V11.5a1.529,1.529,0,0,0,1.458,1.591h7.583A1.529,1.529,0,0,0,12.25,11.5Z" transform="translate(0 -1)" fill="#fff"/>
<script xmlns=""/></svg>