<svg xmlns="http://www.w3.org/2000/svg" width="33.887" height="34" viewBox="0 0 33.887 34"><rect width="33.888" height="34" rx="16.944" transform="translate(0)" fill="#46bf00"/><path d="M39.763,32a7.469,7.469,0,0,0-7.486,7.453A7.394,7.394,0,0,0,33.351,43.3L32,47.3l4.145-1.321A7.464,7.464,0,1,0,39.763,32Zm3.722,10.283a1.933,1.933,0,0,1-1.324.856c-.351.019-.361.273-2.275-.561a7.824,7.824,0,0,1-3.156-2.994,3.691,3.691,0,0,1-.706-2,2.131,2.131,0,0,1,.729-1.562.732.732,0,0,1,.518-.219c.151,0,.248,0,.36,0s.279-.023.424.363.492,1.337.536,1.434a.349.349,0,0,1,0,.334,1.3,1.3,0,0,1-.2.31c-.1.108-.21.24-.3.323s-.2.19-.1.385a5.747,5.747,0,0,0,1.014,1.357,5.221,5.221,0,0,0,1.5,1c.188.1.3.091.416-.032s.5-.538.633-.723.261-.149.434-.08,1.095.565,1.282.668.313.155.358.236a1.582,1.582,0,0,1-.145.9Z" transform="translate(-22.483 -22.683)" fill="#fff"/></svg>